<svg width="28" height="29" viewBox="0 0 28 29" fill="none" xmlns="http://www.w3.org/2000/svg">
<path d="M10.0912 26.5607V22.3439C10.0911 21.2714 10.9655 20.3999 12.0489 20.3927H16.0172C17.1058 20.3927 17.9882 21.2663 17.9882 22.3439V22.3439V26.5738C17.9879 27.4844 18.7221 28.2287 19.6417 28.25H22.2872C24.9245 28.25 27.0625 26.1334 27.0625 23.5225V23.5225V11.527C27.0484 10.4999 26.5613 9.53536 25.7397 8.90792L16.6919 1.69229C15.1068 0.435904 12.8535 0.435904 11.2684 1.69229L2.26028 8.92102C1.43561 9.54591 0.947657 10.512 0.9375 11.5401V23.5225C0.9375 26.1334 3.07545 28.25 5.71275 28.25H8.35832C9.30074 28.25 10.0647 27.4937 10.0647 26.5607V26.5607" stroke="#15B4E5" stroke-width="1.5" stroke-linecap="round" stroke-linejoin="round"/>
</svg>
