<svg width="34" height="34" viewBox="0 0 34 34" fill="none" xmlns="http://www.w3.org/2000/svg">
<path fill-rule="evenodd" clip-rule="evenodd" d="M17.4775 13.5879C19.3762 13.5879 20.915 15.1267 20.915 17.0254C20.915 18.9241 19.3762 20.4629 17.4775 20.4629C15.5788 20.4629 14.04 18.9241 14.04 17.0254C14.04 15.1267 15.5788 13.5879 17.4775 13.5879Z" stroke="#333333" stroke-width="1.5" stroke-linecap="round" stroke-linejoin="round"/>
<path fill-rule="evenodd" clip-rule="evenodd" d="M28.7085 10.4945V10.4945C27.7687 8.85513 25.688 8.29419 24.0617 9.24086C22.6472 10.0626 20.8794 9.03441 20.8794 7.38963C20.8794 5.49766 19.3556 3.96289 17.4772 3.96289V3.96289C15.5988 3.96289 14.075 5.49766 14.075 7.38963C14.075 9.03441 12.3072 10.0626 10.894 9.24086C9.26644 8.29419 7.18577 8.85513 6.24589 10.4945C5.30736 12.1338 5.86427 14.2295 7.49187 15.1748C8.90505 15.9979 8.90505 18.0529 7.49187 18.8759C5.86427 19.8226 5.30736 21.9183 6.24589 23.5563C7.18577 25.1956 9.26644 25.7566 10.8927 24.8113H10.894C12.3072 23.9882 14.075 25.0164 14.075 26.6611V26.6611C14.075 28.5531 15.5988 30.0879 17.4772 30.0879V30.0879C19.3556 30.0879 20.8794 28.5531 20.8794 26.6611V26.6611C20.8794 25.0164 22.6472 23.9882 24.0617 24.8113C25.688 25.7566 27.7687 25.1956 28.7085 23.5563C29.6484 21.9183 29.0902 19.8226 27.4639 18.8759H27.4626C26.0494 18.0529 26.0494 15.9979 27.4639 15.1748C29.0902 14.2295 29.6484 12.1338 28.7085 10.4945Z" stroke="#333333" stroke-width="1.5" stroke-linecap="round" stroke-linejoin="round"/>
</svg>
