<svg width="30" height="24" viewBox="0 0 30 24" fill="none" xmlns="http://www.w3.org/2000/svg">
<path d="M9.05036 8.35026C9.05036 8.35026 8.74462 8.13444 8.52637 5.64893H11.5842C11.5842 5.64893 11.4534 7.75579 10.9727 8.35026" fill="#D0CFCE"/>
<path d="M15.8731 22.8998H14.1257V10.475L6.26123 10.4209V8.36865H23.7353V10.4209L15.8708 10.475L15.8731 22.8998Z" fill="#747474"/>
<path d="M20.2563 14.8415L20.2495 22.8998H18.4994L18.5134 12.6834H27.2526V1.28467H29V22.8942H27.2526V14.8471L20.2563 14.8415ZM2.76059 14.8471V22.8942H1.01318V1.28467H2.76059V12.6834H11.4999V22.8942H9.75245V14.8471H2.76059Z" fill="#747474"/>
<path d="M9.04589 8.35012C9.04589 8.35012 8.73925 8.13374 8.521 5.646H11.5838C11.5838 5.646 11.4526 7.75509 10.9714 8.35012" stroke="#747474" stroke-width="0.4" stroke-miterlimit="10" stroke-linecap="round" stroke-linejoin="round"/>
<path d="M15.8732 22.8993H14.1231V10.4577L6.24512 10.4036V8.34863H23.7462V10.4036L15.8682 10.4577L15.8732 22.8993Z" stroke="#747474" stroke-width="0.4" stroke-miterlimit="10" stroke-linecap="round" stroke-linejoin="round"/>
<path d="M9.31177 3.10264C9.31177 3.10264 9.57422 2.02077 9.31177 0.939453M10.5338 3.10264C10.5338 3.10264 10.7963 2.12895 10.5338 1.20992M20.2426 14.8415L20.2471 22.8998H18.497V12.6778H27.2498V1.26792H28.9995V22.8998H27.2498V14.8415H20.2426ZM11.4988 12.6778V22.8998H9.74874V14.8415H2.75011V22.8552L1 22.8998V1.26792H2.75011V12.6778H11.4988Z" stroke="#747474" stroke-width="0.4" stroke-miterlimit="10" stroke-linecap="round" stroke-linejoin="round"/>
</svg>
