<?xml version="1.0" encoding="UTF-8"?><svg id="Layer_1" xmlns="http://www.w3.org/2000/svg" viewBox="0 0 24.29 24.29"><defs><style>.cls-1{fill:#747474;}</style></defs><path class="cls-1" d="m21.83,0h-10.8c-.55,0-1,.45-1,1s.45,1,1,1h10.8c.25,0,.46.2.46.46v11.62c0,.25-.2.46-.46.46h-8.83c-.55,0-1,.45-1,1s.45,1,1,1h8.83c1.35,0,2.46-1.1,2.46-2.46V2.46c0-1.35-1.1-2.46-2.46-2.46Z"/><path class="cls-1" d="m16.57,9.62c0-1.52-1.24-2.76-2.76-2.76h-5.47s.02-.02.03-.03c.76-.76,1.17-1.76,1.17-2.83s-.42-2.07-1.17-2.83C6.86-.34,4.23-.34,2.71,1.17c-.76.76-1.17,1.76-1.17,2.83s.42,2.07,1.17,2.83c.19.19.39.36.61.5-.62.27-1.2.66-1.7,1.15C.58,9.53,0,10.92,0,12.4v4.03c0,.55.45,1,1,1h1.04l.56,5.95c.05.51.48.91,1,.91h3.89c.5,0,.93-.38.99-.88l1.39-11.03h3.95c1.52,0,2.76-1.24,2.76-2.76ZM4.13,2.59c.38-.38.88-.59,1.42-.59s1.04.21,1.41.59c.38.38.59.88.59,1.42s-.21,1.04-.59,1.41c-.75.76-2.07.76-2.83,0-.38-.38-.59-.88-.59-1.41s.21-1.04.59-1.41Zm4.86,7.79c-.5,0-.93.38-.99.88l-1.39,11.03h-2.1l-.56-5.95c-.05-.51-.48-.91-1-.91h-.95v-3.03c0-.95.37-1.83,1.04-2.5.67-.67,1.56-1.04,2.5-1.04h8.27c.42,0,.76.34.76.76s-.34.76-.76.76h-4.83Z"/></svg>