<svg width="14" height="24" viewBox="0 0 14 24" fill="none" xmlns="http://www.w3.org/2000/svg">
<path fill-rule="evenodd" clip-rule="evenodd" d="M5.25 1.56238C5.25007 1.47 5.27208 1.37896 5.31422 1.29675C5.35636 1.21454 5.41742 1.14351 5.49238 1.08951C5.56733 1.03552 5.65404 1.00009 5.74537 0.986163C5.83669 0.972232 5.93002 0.98019 6.01767 1.00938L13.601 3.53697C13.7172 3.57567 13.8183 3.64997 13.8899 3.74933C13.9615 3.84869 14 3.96807 14 4.09055V20.7494C14 20.8719 13.9615 20.9912 13.8899 21.0906C13.8183 21.19 13.7172 21.2643 13.601 21.303L6.01767 23.8305C5.93002 23.8597 5.83669 23.8677 5.74537 23.8538C5.65404 23.8398 5.56733 23.8044 5.49238 23.7504C5.41742 23.6964 5.35636 23.6254 5.31422 23.5432C5.27208 23.461 5.25007 23.3699 5.25 23.2775V21.17H0V3.08663H5.25V1.56238ZM8.75 11.8366C8.75 12.4812 8.48867 13.0033 8.16667 13.0033C7.84467 13.0033 7.58333 12.4812 7.58333 11.8366C7.58333 11.192 7.84467 10.67 8.16667 10.67C8.48867 10.67 8.75 11.192 8.75 11.8366ZM5.25 4.2533H1.16667V20.0033H5.25V4.2533Z" fill="#747474"/>
</svg>
