<svg width="24" height="25" viewBox="0 0 24 25" fill="none" xmlns="http://www.w3.org/2000/svg">
<path d="M12 23.9199C10.8 22.7339 9.425 21.8269 7.875 21.199C6.325 20.5711 4.7 20.2571 3 20.2571V8.7455C4.68333 8.7455 6.3 9.06399 7.85 9.70097C9.4 10.3379 10.7833 11.2578 12 12.4606C13.2167 11.2571 14.6 10.3372 16.15 9.70097C17.7 9.06469 19.3167 8.7462 21 8.7455V20.2571C19.2833 20.2571 17.6543 20.5711 16.113 21.199C14.5717 21.8269 13.2007 22.7339 12 23.9199ZM12 21.199C13.05 20.3792 14.1667 19.7252 15.35 19.2368C16.5333 18.7484 17.75 18.4257 19 18.2688V11.0478C17.7833 11.2746 16.5873 11.7326 15.412 12.4219C14.2367 13.1112 13.0993 14.0311 12 15.1816C10.9 14.0304 9.76267 13.1105 8.588 12.4219C7.41333 11.7333 6.21733 11.2753 5 11.0478V18.2688C6.25 18.4257 7.46667 18.7484 8.65 19.2368C9.83333 19.7252 10.95 20.3792 12 21.199ZM12 9.79202C10.9 9.79202 9.95833 9.38213 9.175 8.56236C8.39167 7.7426 8 6.75713 8 5.60597C8 4.45481 8.39167 3.46934 9.175 2.64957C9.95833 1.82981 10.9 1.41992 12 1.41992C13.1 1.41992 14.0417 1.82981 14.825 2.64957C15.6083 3.46934 16 4.45481 16 5.60597C16 6.75713 15.6083 7.7426 14.825 8.56236C14.0417 9.38213 13.1 9.79202 12 9.79202ZM12 7.69899C12.55 7.69899 13.021 7.49422 13.413 7.08469C13.805 6.67515 14.0007 6.18225 14 5.60597C13.9993 5.02969 13.8037 4.53713 13.413 4.12829C13.0223 3.71946 12.5513 3.51434 12 3.51295C11.4487 3.51155 10.978 3.71667 10.588 4.12829C10.198 4.53992 10.002 5.03248 10 5.60597C9.998 6.17946 10.194 6.67236 10.588 7.08469C10.982 7.49701 11.4527 7.70178 12 7.69899Z" fill="#747474"/>
</svg>
