<?xml version="1.0" encoding="utf-8"?>
<!-- Generator: Adobe Illustrator 27.4.1, SVG Export Plug-In . SVG Version: 6.00 Build 0)  -->
<svg version="1.1" id="Layer_1" xmlns="http://www.w3.org/2000/svg" xmlns:xlink="http://www.w3.org/1999/xlink" x="0px" y="0px"
	 viewBox="0 0 58 58" style="enable-background:new 0 0 58 58;" xml:space="preserve">
<style type="text/css">
	.st0{fill:#003264;}
	.st1{fill:#FFFFFF;}
</style>
<g>
	<g>
		<path class="st0" d="M29,0L29,0c16,0,29,13,29,29l0,0c0,16-13,29-29,29h0C13,58,0,45,0,29l0,0C0,13,13,0,29,0z"/>
	</g>
	<path class="st1" d="M49.1,41.4h-4c-0.3,0-0.5,0.1-0.7,0.3c-0.4,0.5-0.8,0.9-1.3,1.4c-1.8,1.8-4,3.3-6.4,4.3
		c-2.5,1-5.1,1.6-7.8,1.6c-2.7,0-5.3-0.5-7.8-1.6c-2.4-1-4.6-2.5-6.4-4.3c-1.8-1.8-3.3-4-4.3-6.4C9.5,34.3,9,31.7,9,29
		c0-2.7,0.5-5.3,1.6-7.8c1-2.4,2.5-4.5,4.3-6.4c1.8-1.8,4-3.3,6.4-4.3C23.7,9.5,26.3,9,29,9c2.7,0,5.3,0.5,7.8,1.6
		c2.4,1,4.5,2.5,6.4,4.3c0.4,0.4,0.9,0.9,1.3,1.4c0.2,0.2,0.4,0.3,0.7,0.3h4c0.4,0,0.6-0.4,0.4-0.7C45.2,9.1,37.6,4.6,29,4.7
		c-13.6,0-24.4,11-24.3,24.6c0.1,13.3,11,24.1,24.4,24.1c8.6,0,16.2-4.5,20.5-11.2C49.7,41.8,49.5,41.4,49.1,41.4z M54.2,28.6
		l-8-6.3c-0.3-0.2-0.7,0-0.7,0.4V27H27.6c-0.2,0-0.5,0.2-0.5,0.5v3.2c0,0.2,0.2,0.5,0.5,0.5h17.8v4.3c0,0.4,0.4,0.6,0.7,0.4l8-6.3
		c0.1,0,0.1-0.1,0.1-0.2c0-0.1,0-0.1,0-0.2c0-0.1,0-0.1,0-0.2C54.3,28.7,54.2,28.7,54.2,28.6z"/>
</g>
</svg>
