<svg width="18" height="24" viewBox="0 0 18 24" fill="none" xmlns="http://www.w3.org/2000/svg">
<path d="M3.8865 0.919922L3.75 1.69905L2.875 7.08967V10.5033H2.95725C3.07832 11.4296 3.37427 12.3181 3.82622 13.1123C4.27817 13.9064 4.87622 14.5887 5.58225 15.1157C2.46112 16.582 0.25 19.9745 0.25 23.9199H2C1.99871 22.7697 2.23403 21.634 2.68847 20.5971C3.14292 19.5601 3.80481 18.6487 4.625 17.9303V18.559L4.87088 18.859L8.37088 22.6923L9 23.3507L9.62912 22.6923L13.1291 18.859L13.375 18.559V17.9303C14.1952 18.6487 14.8571 19.5601 15.3115 20.5971C15.766 21.634 16.0013 22.7697 16 23.9199H17.75C17.75 19.9745 15.5389 16.5829 12.4178 15.1148C13.1237 14.5879 13.7217 13.9057 14.1736 13.1117C14.6256 12.3178 14.9216 11.4294 15.0428 10.5033H15.125V7.08871L14.25 1.69905L14.1135 0.919922H3.8865ZM5.3635 2.83659H12.6365L13.375 7.41838V8.58659H4.625V7.41838L5.3635 2.83659ZM8.125 3.79492V4.75326H7.25V6.66992H8.125V7.62825H9.875V6.66992H10.75V4.75326H9.875V3.79492H8.125ZM4.70725 10.5033H13.2928C13.0909 11.5865 12.5531 12.56 11.7708 13.2587C10.9884 13.9573 10.0095 14.3381 9 14.3366C7.99053 14.3381 7.01163 13.9573 6.22924 13.2587C5.44686 12.56 4.90914 11.5865 4.70725 10.5033ZM9 16.2533C9.89851 16.2469 10.7897 16.4301 11.625 16.7928V17.7511L9 20.6261L6.375 17.7511V16.7928C7.21027 16.4301 8.10149 16.2469 9 16.2533Z" fill="#747474"/>
</svg>
