<svg width="33" height="34" viewBox="0 0 33 34" fill="none" xmlns="http://www.w3.org/2000/svg">
<path d="M18.6549 29.4348C19.5942 29.4348 20.2707 28.7442 20.2707 27.819V5.78973C20.2707 4.86455 19.5942 4.09082 18.6272 4.09082C17.9507 4.09082 17.4946 4.39489 16.7627 5.08553L10.6719 10.8446C10.5711 10.9283 10.4433 10.9724 10.3124 10.969H6.21097C4.26338 10.969 3.21387 12.0326 3.21387 14.104V19.4629C3.21387 21.5349 4.26338 22.5979 6.21097 22.5979H10.3124C10.4509 22.5979 10.5752 22.6392 10.6719 22.7223L16.7627 28.5373C17.4257 29.1584 17.9784 29.4348 18.6549 29.4348ZM26.4989 22.8879C26.9686 23.2196 27.6457 23.1094 28.0458 22.5708C29.1236 21.12 29.7724 18.9939 29.7724 16.8253C29.7724 14.6567 29.1094 12.5435 28.0458 11.0656C27.6451 10.527 26.9827 10.4162 26.4989 10.7474C25.8919 11.1481 25.8224 11.8529 26.2644 12.4604C27.0658 13.5377 27.549 15.1812 27.549 16.8247C27.549 18.4688 27.0375 20.1123 26.2508 21.2031C25.836 21.7971 25.9055 22.473 26.4989 22.8879Z" fill="#747474"/>
</svg>
