<svg width="28" height="31" viewBox="0 0 28 31" fill="none" xmlns="http://www.w3.org/2000/svg">
<path d="M16.3332 9.16992C17.944 9.16992 19.2498 7.77081 19.2498 6.04492C19.2498 4.31903 17.944 2.91992 16.3332 2.91992C14.7223 2.91992 13.4165 4.31903 13.4165 6.04492C13.4165 7.77081 14.7223 9.16992 16.3332 9.16992Z" fill="#747474"/>
<path d="M16.9166 17.4825L11.5499 14.92C10.9666 14.6075 10.6749 15.545 10.3833 16.17C10.0916 16.795 7.99159 20.67 8.16659 21.3575C8.34159 21.92 8.80826 22.2325 9.27492 22.2325C9.39159 22.2325 9.50826 22.2325 9.62492 22.17L16.7999 19.795C17.2666 19.67 17.6166 19.17 17.6166 18.67C17.6166 18.17 17.3249 17.67 16.9166 17.4825Z" fill="#636365"/>
<path d="M15.6335 9.91986L14.3502 9.29486C13.5919 8.91986 12.6585 9.29486 12.3085 10.1074L5.36686 26.1074C5.0752 26.7324 5.36686 27.4824 5.9502 27.7949C6.1252 27.8574 6.3002 27.9199 6.4752 27.9199C6.94186 27.9199 7.3502 27.6699 7.5252 27.2324C7.5252 27.2324 13.1252 18.9199 13.5919 17.9199C14.0585 16.9199 16.4502 12.1074 16.4502 12.1074C16.7419 11.2949 16.4502 10.2949 15.6335 9.91986Z" fill="#747474"/>
<path d="M23.625 10.2324C23.2167 9.73242 22.4583 9.60742 21.9917 10.0449L19.075 12.6699L15.3417 10.4824C14.7 10.1074 13.825 10.2324 13.4167 11.0449C12.95 11.8574 13.1833 12.8574 13.8833 13.1699L18.725 15.2949C18.9 15.3574 19.075 15.4199 19.25 15.4199C19.5417 15.4199 19.775 15.2949 20.0083 15.1074L23.5083 11.9824C23.975 11.5449 24.0333 10.7949 23.625 10.2324ZM6.825 14.8574L8.80833 11.6699L11.4917 12.0449L12.3667 10.1074C12.6 9.54492 13.0667 9.23242 13.5917 9.16992H8.225C7.81667 9.16992 7.46667 9.35742 7.23333 9.73242L4.9 13.4824C4.55 14.0449 4.66667 14.8574 5.25 15.2324C5.36667 15.3574 5.6 15.4199 5.83333 15.4199C6.18333 15.4199 6.59167 15.2324 6.825 14.8574Z" fill="#747474"/>
</svg>
