<svg width="28" height="27" viewBox="0 0 28 27" fill="none" xmlns="http://www.w3.org/2000/svg">
<path d="M14.9144 7.30173C14.9144 6.42211 14.7306 5.5511 14.3736 4.73843C14.0166 3.92577 13.4933 3.18736 12.8336 2.56538C12.1739 1.94339 11.3908 1.45 10.5289 1.11339C9.66695 0.77677 8.74315 0.603516 7.81022 0.603516C6.87729 0.603516 5.95349 0.77677 5.09157 1.11339C4.22966 1.45 3.4465 1.94339 2.78682 2.56538C2.12713 3.18736 1.60384 3.92577 1.24683 4.73843C0.889809 5.5511 0.706055 6.42211 0.706055 7.30173C0.706055 9.07821 1.45453 10.7819 2.78682 12.0381C4.11911 13.2942 5.92608 13.9999 7.81022 13.9999C9.69436 13.9999 11.5013 13.2942 12.8336 12.0381C14.1659 10.7819 14.9144 9.07821 14.9144 7.30173ZM7.81022 3.03923C7.98151 3.03923 8.14578 3.10338 8.26689 3.21758C8.38801 3.33178 8.45605 3.48666 8.45605 3.64816V6.6928H11.0394C11.2107 6.6928 11.3749 6.75696 11.4961 6.87115C11.6172 6.98535 11.6852 7.14023 11.6852 7.30173C11.6852 7.46323 11.6172 7.61811 11.4961 7.73231C11.3749 7.8465 11.2107 7.91066 11.0394 7.91066H7.81022C7.63894 7.91066 7.47467 7.8465 7.35355 7.73231C7.23243 7.61811 7.16439 7.46323 7.16439 7.30173V3.64816C7.16439 3.48666 7.23243 3.33178 7.35355 3.21758C7.47467 3.10338 7.63894 3.03923 7.81022 3.03923ZM13.6227 13.0135C12.0609 14.43 9.97732 15.2202 7.81022 15.2178C6.47659 15.2184 5.16199 14.9195 3.97526 14.3458C3.38138 14.6227 2.88147 15.0507 2.53202 15.5814C2.18257 16.1121 1.9975 16.7244 1.99772 17.3491V20.0892C1.99772 21.1427 2.51439 22.0816 3.3191 22.6954C3.4332 23.5916 3.86872 24.424 4.55343 25.0548C5.23815 25.6855 6.13094 26.0767 7.08378 26.1634C8.03662 26.2501 8.99227 26.0272 9.7923 25.5315C10.5923 25.0359 11.1887 24.2973 11.4824 23.4383H17.7005C17.9829 24.2611 18.5433 24.9741 19.296 25.4683C20.0487 25.9625 20.9522 26.2107 21.8687 26.1751C22.7851 26.1395 23.664 25.822 24.3709 25.271C25.0779 24.7201 25.5741 23.966 25.7838 23.1241C26.3958 22.8542 26.9135 22.4254 27.2762 21.8878C27.6388 21.3502 27.8313 20.7263 27.8311 20.0892V18.0335C27.8311 17.2866 27.5663 16.5611 27.0788 15.9723C26.5913 15.3836 25.909 14.9654 25.1405 14.7842L22.3208 14.1193L19.0813 8.94827C18.7831 8.47208 18.3644 8.07294 17.8627 7.78647C17.361 7.50001 16.7918 7.33515 16.2061 7.3066C16.2043 7.93502 16.1294 8.54232 15.9813 9.12852H16.0226C16.5948 9.12852 17.1231 9.41349 17.4138 9.87628L19.9971 13.9999H13.6227V13.0135ZM5.22689 22.2205C5.22689 21.6552 5.46504 21.1131 5.88895 20.7135C6.31286 20.3138 6.8878 20.0892 7.4873 20.0892C8.0868 20.0892 8.66175 20.3138 9.08566 20.7135C9.50957 21.1131 9.74772 21.6552 9.74772 22.2205C9.74772 22.7857 9.50957 23.3278 9.08566 23.7275C8.66175 24.1272 8.0868 24.3517 7.4873 24.3517C6.8878 24.3517 6.31286 24.1272 5.88895 23.7275C5.46504 23.3278 5.22689 22.7857 5.22689 22.2205ZM21.6956 24.3517C21.0961 24.3517 20.5212 24.1272 20.0973 23.7275C19.6734 23.3278 19.4352 22.7857 19.4352 22.2205C19.4352 21.6552 19.6734 21.1131 20.0973 20.7135C20.5212 20.3138 21.0961 20.0892 21.6956 20.0892C22.2951 20.0892 22.8701 20.3138 23.294 20.7135C23.7179 21.1131 23.9561 21.6552 23.9561 22.2205C23.9561 22.7857 23.7179 23.3278 23.294 23.7275C22.8701 24.1272 22.2951 24.3517 21.6956 24.3517Z" fill="white"/>
</svg>
