<svg width="29" height="30" viewBox="0 0 29 30" fill="none" xmlns="http://www.w3.org/2000/svg">
<path fill-rule="evenodd" clip-rule="evenodd" d="M14.7047 18.6502H14.2821C11.378 18.6502 9.02406 16.3246 9.02406 13.4579V7.87148C9.02406 5.00371 11.378 2.6792 14.2821 2.6792H14.7047C17.6087 2.6792 19.9639 5.00371 19.9639 7.87148V13.4579C19.9639 16.3246 17.6087 18.6502 14.7047 18.6502ZM22.4233 13.2918C22.4233 12.6526 22.9477 12.1359 23.5938 12.1359C24.2399 12.1359 24.7643 12.6526 24.7643 13.2918C24.7643 18.4922 20.7775 22.7864 15.6646 23.3632V25.69C15.6646 26.328 15.1402 26.8459 14.4941 26.8459C13.8468 26.8459 13.3235 26.328 13.3235 25.69V23.3632C8.20949 22.7864 4.22266 18.4922 4.22266 13.2918C4.22266 12.6526 4.74705 12.1359 5.39319 12.1359C6.03932 12.1359 6.56372 12.6526 6.56372 13.2918C6.56372 17.6091 10.121 21.1219 14.4941 21.1219C18.866 21.1219 22.4233 17.6091 22.4233 13.2918Z" fill="white"/>
</svg>
