<svg width="28" height="31" viewBox="0 0 28 31" fill="none" xmlns="http://www.w3.org/2000/svg">
<path d="M14.9999 26.1C14.3999 26.5667 13.5499 26.5667 12.9499 26.1L2.69989 18.1333C2.40953 17.9065 2.05167 17.7833 1.68323 17.7833C1.31479 17.7833 0.956929 17.9065 0.666561 18.1333C0.468039 18.2888 0.307493 18.4873 0.197084 18.714C0.0866744 18.9407 0.0292969 19.1895 0.0292969 19.4417C0.0292969 19.6938 0.0866744 19.9426 0.197084 20.1693C0.307493 20.396 0.468039 20.5946 0.666561 20.75L11.9332 29.5167C13.1332 30.45 14.8166 30.45 16.0332 29.5167L27.2999 20.75C28.1499 20.0833 28.1499 18.8 27.2999 18.1333L27.2832 18.1167C26.9929 17.8899 26.635 17.7667 26.2666 17.7667C25.8981 17.7667 25.5403 17.8899 25.2499 18.1167L14.9999 26.1ZM16.0499 21.0667L27.3166 12.3C28.1666 11.6333 28.1666 10.3333 27.3166 9.66666L16.0499 0.899997C14.8499 -0.0333363 13.1666 -0.0333363 11.9499 0.899997L0.683228 9.68333C-0.166772 10.35 -0.166772 11.65 0.683228 12.3167L11.9499 21.0833C13.1499 22.0167 14.8499 22.0167 16.0499 21.0667Z" fill="#747474"/>
</svg>
