<svg width="40" height="40" viewBox="0 0 40 40" fill="none" xmlns="http://www.w3.org/2000/svg">
<path d="M20.9999 30.1C20.3999 30.5667 19.5499 30.5667 18.9499 30.1L8.69989 22.1333C8.40953 21.9065 8.05167 21.7833 7.68323 21.7833C7.31479 21.7833 6.95693 21.9065 6.66656 22.1333C6.46804 22.2888 6.30749 22.4873 6.19708 22.714C6.08667 22.9407 6.0293 23.1895 6.0293 23.4417C6.0293 23.6938 6.08667 23.9426 6.19708 24.1693C6.30749 24.396 6.46804 24.5946 6.66656 24.75L17.9332 33.5167C19.1332 34.45 20.8166 34.45 22.0332 33.5167L33.2999 24.75C34.1499 24.0833 34.1499 22.8 33.2999 22.1333L33.2832 22.1167C32.9929 21.8899 32.635 21.7667 32.2666 21.7667C31.8981 21.7667 31.5403 21.8899 31.2499 22.1167L20.9999 30.1ZM22.0499 25.0667L33.3166 16.3C34.1666 15.6333 34.1666 14.3333 33.3166 13.6667L22.0499 4.9C20.8499 3.96666 19.1666 3.96666 17.9499 4.9L6.68323 13.6833C5.83323 14.35 5.83323 15.65 6.68323 16.3167L17.9499 25.0833C19.1499 26.0167 20.8499 26.0167 22.0499 25.0667Z" fill="#747474"/>
</svg>
