<?xml version="1.0" encoding="UTF-8"?>
<svg id="Layer_1" data-name="Layer 1" xmlns="http://www.w3.org/2000/svg" viewBox="0 0 18.58 18.58">
  <defs>
    <style>
      .cls-1 {
        fill: none;
        stroke: #747474;
        stroke-linecap: round;
        stroke-linejoin: round;
        stroke-width: 1.5px;
      }
    </style>
  </defs>
  <path class="cls-1" d="m11.32,4.53l3.23-3.23c.36-.36.85-.56,1.36-.55.51,0,1,.21,1.36.57.36.36.56.85.57,1.36,0,.51-.2,1-.55,1.36l-3.23,3.23,1.75,8.69c.22,1.11-1.93,2.66-2.51,1.19l-2.55-6.56-3.32,3.32c.16,1.94.2,2.58-1.16,3.94l-2.07-3.44-3.44-2.07c1.36-1.36,2-1.32,3.94-1.16l3.32-3.32L1.45,5.29c-1.47-.57.08-2.73,1.19-2.51l8.69,1.75Z"/>
</svg>