<svg width="24" height="25" viewBox="0 0 24 25" fill="none" xmlns="http://www.w3.org/2000/svg">
<g clip-path="url(#clip0_973_10477)">
<path d="M15 0.811035C15 0.612123 15.079 0.421357 15.2197 0.280705C15.3603 0.140053 15.5511 0.0610352 15.75 0.0610352L21.75 0.0610352C21.9489 0.0610352 22.1397 0.140053 22.2803 0.280705C22.421 0.421357 22.5 0.612123 22.5 0.811035V8.31104C22.5 8.50995 22.421 8.70071 22.2803 8.84136C22.1397 8.98202 21.9489 9.06104 21.75 9.06104H19.5V21.811C19.5 22.0099 19.421 22.2007 19.2803 22.3414C19.1397 22.482 18.9489 22.561 18.75 22.561C18.5511 22.561 18.3603 22.482 18.2197 22.3414C18.079 22.2007 18 22.0099 18 21.811V9.06104H15.75C15.5511 9.06104 15.3603 8.98202 15.2197 8.84136C15.079 8.70071 15 8.50995 15 8.31104V0.811035ZM7.9785 3.06104H13.5V4.56104H7.9785C7.61387 4.56095 7.2617 4.69369 6.98783 4.93442C6.71397 5.17516 6.53717 5.50741 6.4905 5.86904L6.078 9.06104H13.6275C13.7827 9.4999 14.0701 9.87984 14.4503 10.1485C14.8304 10.4171 15.2845 10.5613 15.75 10.561H5.25C5.05109 10.561 4.86032 10.6401 4.71967 10.7807C4.57902 10.9214 4.5 11.1121 4.5 11.311V15.811C4.5 16.0099 4.57902 16.2007 4.71967 16.3414C4.86032 16.482 5.05109 16.561 5.25 16.561H16.5V18.061H7.5V19.936C7.5 20.2344 7.38147 20.5206 7.1705 20.7315C6.95952 20.9425 6.67337 21.061 6.375 21.061C6.07663 21.061 5.79048 20.9425 5.5795 20.7315C5.36853 20.5206 5.25 20.2344 5.25 19.936V18.061C4.65326 18.061 4.08097 17.824 3.65901 17.402C3.23705 16.9801 3 16.4078 3 15.811V11.311C2.99993 10.8365 3.1499 10.3741 3.42847 9.9899C3.70704 9.60572 4.09994 9.31946 4.551 9.17204L4.566 9.06104H3.75C3.55109 9.06104 3.36032 8.98202 3.21967 8.84136C3.07902 8.70071 3 8.50995 3 8.31104C3 8.11212 3.07902 7.92136 3.21967 7.78071C3.36032 7.64005 3.55109 7.56104 3.75 7.56104H4.7595L5.0025 5.67704C5.09588 4.95352 5.44969 4.28882 5.99773 3.80732C6.54577 3.32582 7.25048 3.06051 7.98 3.06104M16.125 12.4375C16.257 12.4375 16.3825 12.459 16.5015 12.502V14.62C16.3319 14.681 16.15 14.7002 15.9714 14.676C15.7928 14.6518 15.6226 14.585 15.4753 14.4811C15.328 14.3772 15.2079 14.2393 15.1252 14.0792C15.0424 13.919 14.9995 13.7413 15 13.561C15 12.94 15.5025 12.4375 16.1235 12.4375M9 13.561C9 13.7086 8.97094 13.8547 8.91448 13.991C8.85802 14.1273 8.77526 14.2511 8.67093 14.3555C8.56661 14.4598 8.44275 14.5426 8.30645 14.599C8.17014 14.6555 8.02404 14.6845 7.8765 14.6845C7.72896 14.6845 7.58286 14.6555 7.44656 14.599C7.31025 14.5426 7.18639 14.4598 7.08207 14.3555C6.97774 14.2511 6.89498 14.1273 6.83852 13.991C6.78206 13.8547 6.753 13.7086 6.753 13.561C6.753 13.2631 6.87137 12.9773 7.08207 12.7666C7.29276 12.5559 7.57853 12.4375 7.8765 12.4375C8.17447 12.4375 8.46024 12.5559 8.67093 12.7666C8.88163 12.9773 9 13.2631 9 13.561Z" fill="#747474"/>
</g>
<defs>
<clipPath id="clip0_973_10477">
<rect width="24" height="24" fill="white" transform="translate(0 0.0610352)"/>
</clipPath>
</defs>
</svg>
