<svg  viewBox="0 0 24 25" fill="none" xmlns="http://www.w3.org/2000/svg">
<path d="M7.44 15.9764C7.9619 15.9764 8.385 15.5533 8.385 15.0314C8.385 14.5095 7.9619 14.0864 7.44 14.0864C6.91809 14.0864 6.495 14.5095 6.495 15.0314C6.495 15.5533 6.91809 15.9764 7.44 15.9764Z" fill="#747474"/>
<path d="M8.85001 13.3514C9.10682 13.3514 9.31501 13.1432 9.31501 12.8864C9.31501 12.6296 9.10682 12.4214 8.85001 12.4214C8.5932 12.4214 8.38501 12.6296 8.38501 12.8864C8.38501 13.1432 8.5932 13.3514 8.85001 13.3514Z" fill="#747474"/>
<path fill-rule="evenodd" clip-rule="evenodd" d="M22.725 13.5608V13.4258C22.7324 13.2909 22.7324 13.1557 22.725 13.0208V12.5258C22.6418 12.4059 22.5667 12.2806 22.5 12.1508V11.7458C22.5 11.6108 22.5 11.4908 22.38 11.3708C22.331 11.2643 22.2909 11.1539 22.26 11.0408V10.9658C22.201 10.8549 22.1509 10.7396 22.11 10.6208C22.0661 10.5179 22.016 10.4177 21.96 10.3208L21.78 9.97581V9.84081C21.3593 9.16085 20.8554 8.53603 20.28 7.98081H16.155L17.13 4.32081C17.2042 4.06512 17.3768 3.84933 17.61 3.72081C17.73 3.66561 17.8604 3.63702 17.9925 3.63702C18.1245 3.63702 18.255 3.66561 18.375 3.72081L21.18 4.78581L21.855 3.04581L19.05 1.56081C18.6809 1.41913 18.2861 1.35665 17.8913 1.37743C17.4965 1.39821 17.1104 1.50178 16.7582 1.68142C16.406 1.86106 16.0955 2.11275 15.8469 2.42016C15.5982 2.72757 15.417 3.08383 15.315 3.46581L14.22 7.63581H10.965C10.8548 6.43852 10.2924 5.32826 9.39219 4.53119C8.492 3.73413 7.32182 3.31021 6.12 3.34581C4.88215 3.3052 3.6784 3.75534 2.77092 4.5982C1.86345 5.44105 1.32577 6.60834 1.275 7.84581C1.27393 8.76093 1.55189 9.65463 2.07181 10.4077C2.59173 11.1608 3.3289 11.7375 4.185 12.0608C4.19207 12.1857 4.19207 12.3109 4.185 12.4358V12.9008C4.17755 13.0357 4.17755 13.1709 4.185 13.3058V13.9808C4.27847 16.3417 5.28755 18.5735 6.99838 20.2031C8.7092 21.8327 10.9873 22.7322 13.35 22.7108C15.7561 22.7877 18.0945 21.907 19.852 20.2619C21.6096 18.6168 22.6428 16.3417 22.725 13.9358V13.5608ZM13.35 20.8358C11.4411 20.913 9.57941 20.23 8.17341 18.9364C6.76741 17.6429 5.93185 15.8446 5.85 13.9358C5.86152 12.2961 6.48161 10.7192 7.59 9.51081H19.125C20.2467 10.7397 20.8628 12.347 20.85 14.0108C20.749 15.9063 19.9051 17.6856 18.5012 18.9631C17.0973 20.2406 15.2466 20.9135 13.35 20.8358ZM3.15 7.90581C3.16914 7.532 3.26211 7.16568 3.42355 6.82799C3.585 6.4903 3.81171 6.18792 4.09062 5.9383C4.36952 5.68868 4.6951 5.49676 5.04856 5.37361C5.40202 5.25047 5.77636 5.19853 6.15 5.22081C6.8592 5.18537 7.55669 5.41182 8.10982 5.8571C8.66295 6.30237 9.03315 6.9354 9.15 7.63581H6.795C6.21546 8.18722 5.71112 8.81261 5.295 9.49581C5.29786 9.53576 5.29786 9.57586 5.295 9.61581L5.115 9.96081C5.0688 10.0479 5.0287 10.1381 4.995 10.2308C4.49398 10.0659 4.05224 9.75776 3.72436 9.34457C3.39648 8.93138 3.1968 8.4312 3.15 7.90581Z" fill="#747474"/>
</svg>
