<svg width="24" height="25" viewBox="0 0 24 25" fill="none" xmlns="http://www.w3.org/2000/svg">
<path d="M2.99999 8.32464V8.31114C2.99997 6.97772 3.39488 5.67418 4.13489 4.56495C4.8749 3.45573 5.92686 2.59054 7.15805 2.07852C8.38924 1.5665 9.74449 1.4306 11.0528 1.68796C12.3612 1.94533 13.564 2.58443 14.5095 3.52463C15.2534 3.15745 16.0844 3.00307 16.9106 3.07855C17.7367 3.15402 18.526 3.45642 19.191 3.95232C19.8561 4.44823 20.3712 5.11834 20.6793 5.88861C20.9874 6.65889 21.0766 7.49935 20.937 8.31714C21.1422 8.33618 21.3414 8.39734 21.5219 8.49677C21.7025 8.5962 21.8606 8.73179 21.9865 8.89506C22.1123 9.05833 22.2031 9.24579 22.2533 9.44573C22.3034 9.64567 22.3119 9.8538 22.278 10.0571C21.6 14.1356 19.923 16.7171 17.25 17.8031V18.8111C17.25 19.4079 17.0129 19.9802 16.591 20.4021C16.169 20.8241 15.5967 21.0611 15 21.0611H8.99999C8.40325 21.0611 7.83096 20.8241 7.409 20.4021C6.98704 19.9802 6.74999 19.4079 6.74999 18.8111V17.8031C4.07699 16.7171 2.39999 14.1356 1.72199 10.0571C1.68927 9.8592 1.69659 9.65672 1.74351 9.46166C1.79043 9.2666 1.876 9.08294 1.99516 8.92154C2.11432 8.76015 2.26465 8.62429 2.43724 8.52202C2.60984 8.41975 2.8012 8.35314 2.99999 8.32614V8.32464ZM4.49999 8.31114H5.99999C5.99999 7.31657 6.39508 6.36275 7.09834 5.65948C7.8016 4.95622 8.75543 4.56113 9.74999 4.56113C10.7446 4.56113 11.6984 4.95622 12.4016 5.65948C13.1049 6.36275 13.5 7.31657 13.5 8.31114H15C15 6.91875 14.4469 5.58339 13.4623 4.59882C12.4777 3.61426 11.1424 3.06113 9.74999 3.06113C8.3576 3.06113 7.02225 3.61426 6.03768 4.59882C5.05311 5.58339 4.49999 6.91875 4.49999 8.31114ZM7.49999 8.31114H12C12 7.7144 11.7629 7.1421 11.341 6.72014C10.919 6.29819 10.3467 6.06113 9.74999 6.06113C9.15325 6.06113 8.58096 6.29819 8.159 6.72014C7.73704 7.1421 7.49999 7.7144 7.49999 8.31114ZM17.799 8.31114H19.4055C19.5187 7.86784 19.5293 7.40455 19.4364 6.95656C19.3434 6.50857 19.1495 6.0877 18.8692 5.72603C18.589 5.36436 18.2299 5.07143 17.8193 4.86956C17.4088 4.66768 16.9575 4.5622 16.5 4.56113C16.14 4.56113 15.798 4.62413 15.48 4.73963C15.7455 5.16563 15.9645 5.62464 16.1325 6.10614C16.4182 6.03527 16.7184 6.04987 16.9959 6.1481C17.2734 6.24633 17.5159 6.42387 17.6934 6.6587C17.8709 6.89353 17.9755 7.17531 17.9942 7.46906C18.013 7.76282 17.9451 8.05562 17.799 8.31114ZM15.75 18.0611H8.24999V18.8111C8.24999 19.01 8.32901 19.2008 8.46966 19.3415C8.61031 19.4821 8.80108 19.5611 8.99999 19.5611H15C15.1989 19.5611 15.3897 19.4821 15.5303 19.3415C15.671 19.2008 15.75 19.01 15.75 18.8111V18.0611ZM7.72199 16.5611H16.278C18.657 15.7961 20.163 13.6331 20.799 9.81114H3.20099C3.83699 13.6331 5.34299 15.7961 7.72199 16.5611Z" fill="#000"/>
</svg>
