<svg width="32" height="33" viewBox="0 0 32 33" fill="none" xmlns="http://www.w3.org/2000/svg">
<path d="M9 4.06104C6.8 4.06104 5 5.86104 5 8.06104C5 9.17404 5.477 10.178 6.219 10.905C5.53863 11.3647 4.98084 11.9836 4.59411 12.7079C4.20739 13.4322 4.00344 14.24 4 15.061V20.686L6 21.686V28.061H12V21.686L14 20.686V15.061C13.9966 14.24 13.7926 13.4322 13.4059 12.7079C13.0192 11.9836 12.4614 11.3647 11.781 10.905C12.523 10.178 13 9.17503 13 8.06104C13 5.86104 11.2 4.06104 9 4.06104ZM22 4.06104C19.8 4.06104 18 5.86104 18 8.06104C18 9.21304 18.523 10.237 19.313 10.967C18.3701 11.6729 17.7326 12.7125 17.531 13.873V13.905L16.031 21.874L15.781 23.061H19V28.061H25V23.061H28.219L27.969 21.873L26.469 13.905V13.874C26.2677 12.7132 25.6302 11.6732 24.687 10.967C25.477 10.237 26 9.21304 26 8.06104C26 5.86104 24.2 4.06104 22 4.06104ZM9 6.06104C10.117 6.06104 11 6.94404 11 8.06104C11 9.17804 10.117 10.061 9 10.061C7.883 10.061 7 9.17804 7 8.06104C7 6.94404 7.883 6.06104 9 6.06104ZM22 6.06104C23.117 6.06104 24 6.94404 24 8.06104C24 9.17804 23.117 10.061 22 10.061C20.883 10.061 20 9.17804 20 8.06104C20 6.94404 20.883 6.06104 22 6.06104ZM9 12.061C9.79565 12.061 10.5587 12.3771 11.1213 12.9397C11.6839 13.5023 12 14.2654 12 15.061V19.436L10 20.436V26.061H8V20.436L6 19.436V15.061C6 14.2654 6.31607 13.5023 6.87868 12.9397C7.44129 12.3771 8.20435 12.061 9 12.061ZM22 12.061C23.23 12.061 24.277 12.877 24.5 14.217V14.248H24.531L25.813 21.061H23V26.061H21V21.061H18.187L19.469 14.248H19.5V14.218C19.723 12.877 20.77 12.061 22 12.061Z" fill="#747474"/>
</svg>
