<svg viewBox="0 0 24 25" fill="none" xmlns="http://www.w3.org/2000/svg">
<path d="M0.834979 17.382V17.432H0.884979H2.25458H2.30458V17.382V6.74022V6.69022H2.25458H0.884979H0.834979V6.74022V17.382ZM4.31103 19.6994V19.7494H4.36103H19.6376H19.6876V19.6994V8.5837C19.6876 7.41555 19.2779 6.42034 18.4595 5.60098L18.4594 5.60094C17.6401 4.78251 16.6449 4.37285 15.4767 4.37285H8.52325C7.36502 4.37285 6.37264 4.78259 5.54885 5.60084C4.72397 6.42017 4.31103 7.41543 4.31103 8.5837V19.6994ZM21.6954 17.3807V17.4306L21.7453 17.4307L23.1149 17.4334L23.165 17.4335V17.3834V6.74296V6.69296H23.115H21.7454H21.6954V6.74296V17.3807ZM8.94713 12.7459V12.7959H8.99713H11.2645V18.2798H5.78063V8.58507C5.78063 7.8305 6.04788 7.18576 6.5837 6.64814C7.11945 6.11059 7.76413 5.84245 8.52051 5.84245H11.2645V11.3263H8.99713H8.94713V11.3763V12.7459ZM15.0515 11.3763V11.3263H15.0015H12.7341V5.84245H15.4753C16.2299 5.84245 16.8746 6.11013 17.4122 6.64683C17.9499 7.18539 18.218 7.83012 18.218 8.5837V18.2798H12.7341V12.7959H15.0015H15.0515V12.7459V11.3763Z" fill="#747474" stroke="black" stroke-width="0.1"/>
</svg>
