<svg width="21" height="22" viewBox="0 0 21 22" fill="none" xmlns="http://www.w3.org/2000/svg">
<path d="M2.005 14.061V2.06104H0.00500488V0.0610352H3.005C3.27022 0.0610352 3.52457 0.166392 3.71211 0.353928C3.89965 0.541465 4.005 0.795819 4.005 1.06104V13.061H16.443L18.443 5.06104H6.005V3.06104H19.725C19.877 3.06104 20.027 3.0957 20.1636 3.16237C20.3002 3.22905 20.4198 3.32599 20.5133 3.44582C20.6069 3.56566 20.6718 3.70523 20.7033 3.85395C20.7348 4.00266 20.7319 4.15659 20.695 4.30404L18.195 14.304C18.1408 14.5203 18.016 14.7122 17.8402 14.8494C17.6645 14.9865 17.4479 15.061 17.225 15.061H3.004C2.73879 15.061 2.48443 14.9557 2.2969 14.7681C2.10936 14.5806 2.005 14.3263 2.005 14.061ZM4.004 21.061C3.47357 21.061 2.96486 20.8503 2.58979 20.4752C2.21472 20.1002 2.004 19.5915 2.004 19.061C2.004 18.5306 2.21472 18.0219 2.58979 17.6468C2.96486 17.2717 3.47357 17.061 4.004 17.061C4.53444 17.061 5.04315 17.2717 5.41822 17.6468C5.79329 18.0219 6.004 18.5306 6.004 19.061C6.004 19.5915 5.79329 20.1002 5.41822 20.4752C5.04315 20.8503 4.53444 21.061 4.004 21.061ZM16.004 21.061C15.4736 21.061 14.9649 20.8503 14.5898 20.4752C14.2147 20.1002 14.004 19.5915 14.004 19.061C14.004 18.5306 14.2147 18.0219 14.5898 17.6468C14.9649 17.2717 15.4736 17.061 16.004 17.061C16.5344 17.061 17.0431 17.2717 17.4182 17.6468C17.7933 18.0219 18.004 18.5306 18.004 19.061C18.004 19.5915 17.7933 20.1002 17.4182 20.4752C17.0431 20.8503 16.5344 21.061 16.004 21.061Z" fill="#747474"/>
</svg>
