<svg  viewBox="0 0 28 20" fill="none" xmlns="http://www.w3.org/2000/svg">
<path fill-rule="evenodd" clip-rule="evenodd" d="M4.15509 3.96019C6.53521 1.98707 9.93009 0.137695 13.7828 0.137695C17.6356 0.137695 21.0291 1.98707 23.4106 3.96019C24.4875 4.84229 25.455 5.84998 26.2926 6.96182C26.6405 7.43482 26.932 7.89957 27.1423 8.33269C27.3348 8.72594 27.5328 9.23744 27.5328 9.76269C27.5328 10.2879 27.3335 10.7994 27.1423 11.1927C26.9003 11.674 26.616 12.1327 26.2926 12.5636C25.455 13.6754 24.4875 14.6831 23.4106 15.5652C21.0305 17.5383 17.6356 19.3877 13.7828 19.3877C9.93009 19.3877 6.53659 17.5383 4.15509 15.5652C3.07822 14.6831 2.11068 13.6754 1.27309 12.5636C0.949711 12.1327 0.665338 11.674 0.423337 11.1927C0.230837 10.7994 0.0328369 10.2879 0.0328369 9.76269C0.0328369 9.23744 0.232212 8.72594 0.423337 8.33269C0.633712 7.89957 0.925212 7.43482 1.27309 6.96182C2.11068 5.84998 3.07822 4.84229 4.15509 3.96019ZM13.7828 13.8877C14.8769 13.8877 15.9261 13.4531 16.6996 12.6795C17.4732 11.9059 17.9078 10.8567 17.9078 9.76269C17.9078 8.66868 17.4732 7.61947 16.6996 6.84588C15.9261 6.07229 14.8769 5.63769 13.7828 5.63769C12.6888 5.63769 11.6396 6.07229 10.866 6.84588C10.0924 7.61947 9.65784 8.66868 9.65784 9.76269C9.65784 10.8567 10.0924 11.9059 10.866 12.6795C11.6396 13.4531 12.6888 13.8877 13.7828 13.8877Z" fill="#747474"/>
</svg>
