<?xml version="1.0" encoding="utf-8"?>
<!-- Generator: Adobe Illustrator 27.4.1, SVG Export Plug-In . SVG Version: 6.00 Build 0)  -->
<svg version="1.1" id="Layer_1" xmlns="http://www.w3.org/2000/svg" xmlns:xlink="http://www.w3.org/1999/xlink" x="0px" y="0px"
	 viewBox="0 0 179.8 179.8" style="enable-background:new 0 0 179.8 179.8;" xml:space="preserve">
<style type="text/css">
	.st0{fill:#747474;}
	.st1{fill:#FFFFFF;}
</style>
<g>
	<g>
		<path class="st0" d="M89.9,0L89.9,0c49.7,0,89.9,40.3,89.9,89.9l0,0c0,49.7-40.3,89.9-89.9,89.9l0,0C40.3,179.8,0,139.6,0,89.9
			l0,0C0,40.3,40.3,0,89.9,0z"/>
	</g>
	<path class="st1" d="M152.4,128.5H140c-0.8,0-1.6,0.4-2.2,1c-1.2,1.5-2.5,2.9-3.9,4.3c-5.7,5.7-12.4,10.2-19.8,13.3
		c-7.7,3.2-15.9,4.9-24.2,4.9c-8.4,0-16.5-1.6-24.2-4.9c-7.4-3.1-14.1-7.6-19.8-13.3c-5.7-5.7-10.2-12.4-13.3-19.7
		c-3.2-7.7-4.9-15.8-4.9-24.2c0-8.4,1.6-16.5,4.9-24.2c3.1-7.4,7.6-14,13.3-19.7c5.7-5.7,12.4-10.2,19.8-13.3
		c7.7-3.2,15.8-4.9,24.2-4.9c8.4,0,16.5,1.6,24.2,4.9c7.4,3.1,14.1,7.6,19.8,13.3c1.4,1.4,2.7,2.8,3.9,4.3c0.5,0.6,1.3,1,2.2,1h12.3
		c1.1,0,1.8-1.2,1.2-2.2c-13.5-20.9-37-34.8-63.8-34.7c-42,0.1-75.8,34.2-75.3,76.2c0.4,41.3,34.1,74.7,75.5,74.7
		c26.7,0,50.1-13.8,63.6-34.7C154.1,129.7,153.5,128.5,152.4,128.5z M168,88.8l-24.9-19.7c-0.9-0.7-2.3-0.1-2.3,1.1v13.3H85.7
		c-0.8,0-1.4,0.6-1.4,1.4v9.8c0,0.8,0.6,1.4,1.4,1.4h55.1v13.3c0,1.2,1.4,1.8,2.3,1.1L168,91c0.2-0.1,0.3-0.3,0.4-0.5
		c0.1-0.2,0.1-0.4,0.1-0.6c0-0.2,0-0.4-0.1-0.6C168.3,89.1,168.1,88.9,168,88.8z"/>
</g>
</svg>
