<svg width="36" height="40" viewBox="0 0 36 40" fill="none" xmlns="http://www.w3.org/2000/svg">
<path d="M18.6552 35.4346C19.5945 35.4346 20.271 34.7439 20.271 33.8188V11.7895C20.271 10.8643 19.5945 10.0906 18.6275 10.0906C17.951 10.0906 17.4949 10.3946 16.763 11.0853L10.6721 16.8444C10.5713 16.928 10.4436 16.9722 10.3126 16.9687H6.21122C4.26363 16.9687 3.21411 18.0324 3.21411 20.1037V25.4627C3.21411 27.5346 4.26363 28.5977 6.21122 28.5977H10.3126C10.4511 28.5977 10.5755 28.6389 10.6721 28.722L16.763 34.5371C17.4259 35.1582 17.9787 35.4346 18.6552 35.4346ZM26.4991 28.8876C26.9688 29.2194 27.6459 29.1092 28.046 28.5706C29.1238 27.1198 29.7726 24.9936 29.7726 22.825C29.7726 20.6565 29.1097 18.5433 28.046 17.0654C27.6453 16.5268 26.983 16.416 26.4991 16.7471C25.8922 17.1479 25.8226 17.8526 26.2646 18.4602C27.066 19.5374 27.5493 21.1809 27.5493 22.8245C27.5493 24.4686 27.0378 26.1121 26.2511 27.2028C25.8362 27.7968 25.9057 28.4728 26.4991 28.8876Z" fill="#747474"/>
<g clip-path="url(#clip0_716_5611)">
<path d="M23.4937 4.7627C21.9114 4.7627 20.3647 5.23189 19.0491 6.11094C17.7335 6.98999 16.7081 8.23942 16.1026 9.70123C15.4971 11.163 15.3387 12.7716 15.6474 14.3234C15.9561 15.8753 16.718 17.3007 17.8368 18.4196C18.9556 19.5384 20.3811 20.3003 21.9329 20.609C23.4848 20.9177 25.0933 20.7592 26.5551 20.1537C28.0169 19.5482 29.2664 18.5229 30.1454 17.2073C31.0245 15.8917 31.4937 14.3449 31.4937 12.7627C31.4937 10.641 30.6508 8.60613 29.1505 7.10584C27.6502 5.60555 25.6154 4.7627 23.4937 4.7627ZM22.5003 8.7627C22.5003 8.49748 22.6057 8.24313 22.7932 8.05559C22.9808 7.86805 23.2351 7.7627 23.5003 7.7627C23.7655 7.7627 24.0199 7.86805 24.2074 8.05559C24.395 8.24313 24.5003 8.49748 24.5003 8.7627V13.356C24.5003 13.4874 24.4745 13.6174 24.4242 13.7387C24.3739 13.86 24.3003 13.9703 24.2074 14.0631C24.1146 14.156 24.0043 14.2297 23.883 14.2799C23.7617 14.3302 23.6316 14.356 23.5003 14.356C23.369 14.356 23.239 14.3302 23.1176 14.2799C22.9963 14.2297 22.8861 14.156 22.7932 14.0631C22.7004 13.9703 22.6267 13.86 22.5764 13.7387C22.5262 13.6174 22.5003 13.4874 22.5003 13.356V8.7627ZM23.4937 17.7627C23.2669 17.7627 23.0452 17.6954 22.8566 17.5694C22.668 17.4435 22.5211 17.2644 22.4343 17.0548C22.3475 16.8453 22.3248 16.6148 22.369 16.3923C22.4133 16.1699 22.5225 15.9656 22.6828 15.8052C22.8432 15.6448 23.0475 15.5356 23.27 15.4914C23.4924 15.4472 23.7229 15.4699 23.9325 15.5566C24.142 15.6434 24.3211 15.7904 24.4471 15.979C24.5731 16.1675 24.6403 16.3892 24.6403 16.616C24.6403 16.9201 24.5195 17.2118 24.3045 17.4268C24.0894 17.6419 23.7978 17.7627 23.4937 17.7627Z" fill="#FF8C42"/>
</g>
<defs>
<clipPath id="clip0_716_5611">
<rect width="24" height="24" fill="white" transform="translate(11.4937 0.762695)"/>
</clipPath>
</defs>
</svg>
